<svg xmlns="http://www.w3.org/2000/svg" viewBox="0 0 800 450" width="800" height="450">
    <defs>
        <pattern id="card-grid-quad" width="40" height="40" patternUnits="userSpaceOnUse">
            <path d="M 40 0 L 0 0 0 40" fill="none" stroke="rgba(226, 186, 92, 0.08)" stroke-width="1"/>
        </pattern>
    </defs>
    <rect width="800" height="450" fill="#0e0a17"/>
    <rect width="800" height="450" fill="url(#card-grid-quad)"/>
    <line x1="100" y1="380" x2="700" y2="380" stroke="#58298c" stroke-width="2"/>
    <rect x="280" y="160" width="240" height="60" rx="10" fill="#1a1129" stroke="#e2ba5c" stroke-width="2.5"/>
    <circle cx="400" cy="190" r="14" fill="#0e0a17" stroke="#b69edf" stroke-width="2"/>
    <circle cx="490" cy="190" r="12" fill="#0e0a17" stroke="#e2ba5c" stroke-width="2"/>
    <line x1="490" y1="190" x2="550" y2="280" stroke="#e2ba5c" stroke-width="7" stroke-linecap="round"/>
    <circle cx="550" cy="280" r="10" fill="#0e0a17" stroke="#b69edf" stroke-width="2"/>
    <line x1="550" y1="280" x2="520" y2="380" stroke="#b69edf" stroke-width="6" stroke-linecap="round"/>
    <circle cx="520" cy="380" r="7" fill="#dc2626"/>
    <circle cx="310" cy="190" r="12" fill="#0e0a17" stroke="#e2ba5c" stroke-width="2"/>
    <line x1="310" y1="190" x2="250" y2="270" stroke="#e2ba5c" stroke-width="7" stroke-linecap="round"/>
    <circle cx="250" cy="270" r="10" fill="#0e0a17" stroke="#b69edf" stroke-width="2"/>
    <line x1="250" y1="270" x2="280" y2="330" stroke="#b69edf" stroke-width="6" stroke-linecap="round"/>
    <circle cx="280" cy="330" r="7" fill="#e2ba5c"/>
    <path d="M 210 380 Q 280 300 350 380" fill="none" stroke="#e2ba5c" stroke-width="2" stroke-dasharray="4 4"/>
    <rect x="24" y="24" width="280" height="66" rx="6" fill="rgba(14, 10, 23, 0.92)" stroke="rgba(226, 186, 92, 0.3)" stroke-width="1"/>
    <text x="38" y="48" fill="#e2ba5c" font-family="monospace" font-size="13" font-weight="bold">CHAPTER 04 // QUADRUPED</text>
    <text x="38" y="70" fill="#b69edf" font-family="monospace" font-size="11">Convex MPC &#8226; Whole-Body Control</text>
</svg>
