<svg xmlns="http://www.w3.org/2000/svg" viewBox="0 0 800 450" width="800" height="450">
    <defs>
        <pattern id="card-grid-flight" width="40" height="40" patternUnits="userSpaceOnUse">
            <path d="M 40 0 L 0 0 0 40" fill="none" stroke="rgba(226, 186, 92, 0.08)" stroke-width="1"/>
        </pattern>
    </defs>
    <rect width="800" height="450" fill="#0e0a17"/>
    <rect width="800" height="450" fill="url(#card-grid-flight)"/>
    <rect x="180" y="70" width="440" height="310" rx="16" fill="#1a1129" stroke="#e2ba5c" stroke-width="2"/>
    <circle cx="205" cy="95" r="8" fill="#0e0a17" stroke="#e2ba5c" stroke-width="1.5"/>
    <circle cx="595" cy="95" r="8" fill="#0e0a17" stroke="#e2ba5c" stroke-width="1.5"/>
    <circle cx="205" cy="355" r="8" fill="#0e0a17" stroke="#e2ba5c" stroke-width="1.5"/>
    <circle cx="595" cy="355" r="8" fill="#0e0a17" stroke="#e2ba5c" stroke-width="1.5"/>
    <path d="M 230 180 L 320 180 L 350 210 L 400 210" fill="none" stroke="#b69edf" stroke-width="1.5"/>
    <path d="M 230 200 L 310 200 L 340 230 L 400 230" fill="none" stroke="#b69edf" stroke-width="1.5"/>
    <path d="M 400 240 L 460 240 L 490 270 L 570 270" fill="none" stroke="#b69edf" stroke-width="1.5"/>
    <rect x="340" y="175" width="120" height="100" rx="4" fill="#0e0a17" stroke="#e2ba5c" stroke-width="2"/>
    <text x="400" y="220" text-anchor="middle" fill="#e2ba5c" font-family="monospace" font-size="12" font-weight="bold">STM32H743</text>
    <text x="400" y="238" text-anchor="middle" fill="#ccb9ea" font-family="monospace" font-size="10">480MHz ARM-M7</text>
    <rect x="230" y="120" width="50" height="40" rx="2" fill="#281a42" stroke="#b69edf" stroke-width="1.5"/>
    <rect x="520" y="120" width="50" height="40" rx="2" fill="#281a42" stroke="#e2ba5c" stroke-width="1.5"/>
    <rect x="24" y="24" width="280" height="66" rx="6" fill="rgba(14, 10, 23, 0.92)" stroke="rgba(226, 186, 92, 0.3)" stroke-width="1"/>
    <text x="38" y="48" fill="#e2ba5c" font-family="monospace" font-size="13" font-weight="bold">CHAPTER 03 // AVIONICS</text>
    <text x="38" y="70" fill="#b69edf" font-family="monospace" font-size="11">Dual IMU SPI &#8226; FreeRTOS &#8226; MAVLink</text>
</svg>
